# xmcd
#
# Track frame offsets:
# 150
# 15504
# 35282
# 48371
# 65997
#
# Disc length: 1089 seconds
#
#
# Revision: 0
# Processed by: cddbd v1.5PL3 Copyright (c) Steve Scherf et al.
# Submitted via: FreeRIP 2.30 
#
DISCID=3b043f05
DTITLE=Larry Taylor Band - Blues and Soul For All People
DYEAR=1900
DGENRE=Blues
TTITLE0=Bad Boy
TTITLE1=Yes I Love
TTITLE2=My Baby's Gone
TTITLE3=Sock It To Me
TTITLE4=I'm Gonna Miss You
EXTD=
EXTT0=
EXTT1=
EXTT2=
EXTT3=
EXTT4=
PLAYORDER=
